<svg xmlns="http://www.w3.org/2000/svg" viewBox="0 0 1399.82 146.48"><g id="Layer_2" data-name="Layer 2"><g id="Layer_1-2" data-name="Layer 1"><path d="M1399.82,21.5a62.25,62.25,0,0,0-35.17,10.84,27.56,27.56,0,0,0-53.82-4,52.7,52.7,0,0,0-87.21,23.39,44.13,44.13,0,0,0-60.81,25.28,27.1,27.1,0,0,0-29.18-1.81A37.23,37.23,0,0,0,1075.44,60a55.29,55.29,0,0,0-66.89-28.69,39.91,39.91,0,0,0-76.87,21.42,27.58,27.58,0,0,0-30.07,10.93,39,39,0,0,0-24.13-8.32,39.19,39.19,0,0,0-71.56-22.11A58.12,58.12,0,0,0,725.33,58a42.47,42.47,0,0,0-36.76-21.18c-1.21,0-2.4.07-3.58.16a50.38,50.38,0,0,0-95.71,6.56A31.43,31.43,0,0,0,553.4,67.22a26.67,26.67,0,0,0-21.12-4.45A38.35,38.35,0,0,0,483.6,37.92,36.59,36.59,0,0,0,417,32a32.24,32.24,0,0,0-49.79,23.26A43.14,43.14,0,0,0,340,59.65a31.6,31.6,0,0,0-31.56-30,31.28,31.28,0,0,0-8.87,1.28,45.77,45.77,0,0,0-88.8,10A42.17,42.17,0,0,0,159.69,59a32.17,32.17,0,0,0-39-6.14A23.83,23.83,0,0,0,86.8,39a34.46,34.46,0,0,0-47.94-3.9A62.2,62.2,0,0,0,0,21.5v125H1399.82Z" fill="#ccc"/></g></g></svg>