<svg xmlns="http://www.w3.org/2000/svg" viewBox="0 0 1399.82 148.85"><g id="Layer_2" data-name="Layer 2"><g id="Layer_1-2" data-name="Layer 1"><path d="M1399.82,23.87a62.27,62.27,0,0,0-27,6.14A61.33,61.33,0,0,0,1260.14,48.2c-.72,0-1.44-.07-2.17-.07a38.24,38.24,0,0,0-23.45,8,42.22,42.22,0,0,0-51.2-30.55,45.76,45.76,0,0,0-83.1,7.69A31.6,31.6,0,0,0,1059.79,62a43.1,43.1,0,0,0-20.21-5,44.11,44.11,0,0,0-6.94.56,32.25,32.25,0,0,0-49.79-23.26,36.6,36.6,0,0,0-66.63,6,38.32,38.32,0,0,0-48.68,24.85,26.7,26.7,0,0,0-21.12,4.44,31.43,31.43,0,0,0-35.88-23.71,50.38,50.38,0,0,0-95.72-6.56c-1.17-.1-2.36-.16-3.57-.16a42.47,42.47,0,0,0-36.76,21.18A58.14,58.14,0,0,0,593.9,35.59a39.2,39.2,0,0,0-71.56,22.12A39,39,0,0,0,498.21,66,27.52,27.52,0,0,0,468.14,55.1a39.91,39.91,0,0,0-72.67-30.69A55.15,55.15,0,0,0,339,49.05a43.73,43.73,0,0,0-67.07,12.22,27.11,27.11,0,0,0-42,5.25A44.12,44.12,0,0,0,176.2,54.15,52.7,52.7,0,0,0,96.91,24.47,34.47,34.47,0,0,0,36.32,35.53,62.15,62.15,0,0,0,0,23.87v125H1399.82Z" fill="#4d4d4d"/></g></g></svg>