<svg xmlns="http://www.w3.org/2000/svg" viewBox="0 0 1399.82 128.62"><g id="Layer_2" data-name="Layer 2"><g id="Layer_1-2" data-name="Layer 1"><path d="M1399.82,47.76A70.6,70.6,0,0,0,1347.37,71a44.12,44.12,0,0,0-85.08-1.41,31.73,31.73,0,0,0-34-3.83,37.2,37.2,0,0,0-54.91-3.83,55.27,55.27,0,0,0-63.43-25,39.91,39.91,0,1,0-78.15,15.82,27.58,27.58,0,0,0-30.07,10.93,39,39,0,0,0-24.13-8.32,39.19,39.19,0,0,0-71.56-22.11A58.11,58.11,0,0,0,826,57a58.18,58.18,0,0,0-66-11,39.07,39.07,0,0,0-70.13,8.86,26.68,26.68,0,0,0-33.83,11.55,26.65,26.65,0,0,0-24.59-6.25,38.34,38.34,0,0,0-47.71-22.17,36.59,36.59,0,0,0-66.63-6A32.24,32.24,0,0,0,467.18,57,27.06,27.06,0,0,0,440.05,55a31.54,31.54,0,0,0-36.8-27.87,45.76,45.76,0,0,0-82.32-2.58,42.22,42.22,0,0,0-56.72,38,32.22,32.22,0,0,0-24.36-3.13,23.83,23.83,0,0,0-43.64-12.53,47.66,47.66,0,0,0-45.3-8.08A36.3,36.3,0,0,0,84,58.24c0,.21,0,.41,0,.62A31.68,31.68,0,0,0,46.3,65,70.52,70.52,0,0,0,0,47.76v80.86H1399.82Z" fill="#fcfcfc"/></g></g></svg>